<svg width="151" height="28" viewBox="0 0 151 28" fill="none" xmlns="http://www.w3.org/2000/svg">
<g clip-path="url(#clip0_1301_201)">
<rect width="28" height="28" rx="2.625" fill="#1C9DEA"/>
<path d="M24.8896 3.49976L12.3785 18.3062H11.0449C10.8695 18.3213 10.691 18.3304 10.5126 18.3304C6.42389 18.3304 3.10938 15.0159 3.10938 10.9272C3.10938 6.83846 6.42389 3.52395 10.5126 3.52395C10.6366 3.52395 10.7576 3.52697 10.8785 3.53302L24.8896 3.50278V3.49976Z" fill="white" fill-opacity="0.6"/>
<g filter="url(#filter0_d_1301_201)">
<path d="M20.4577 11.0783L9.4375 24.4694L3.0625 24.4603L16.2812 8.77686C17.9325 8.93411 19.3659 9.81415 20.4577 11.0783Z" fill="white"/>
</g>
<g filter="url(#filter1_d_1301_201)">
<path d="M22.8555 17.0965C22.8555 21.1852 19.541 24.4997 15.4523 24.4997C15.2739 24.4997 15.0985 24.4906 14.92 24.4785L11.3848 24.4725L21.4674 12.2275C22.3505 13.6761 22.8555 15.412 22.8555 17.0965Z" fill="white"/>
</g>
</g>
<path d="M39.67 20.18C36.196 20.18 34.54 18.668 34.54 15.932H36.466C36.664 17.786 37.474 18.668 39.706 18.668C41.902 18.668 42.802 17.75 42.802 16.328C42.802 15.392 42.28 14.726 40.246 14.438L38.464 14.168C35.818 13.79 34.864 12.836 34.864 10.892C34.864 8.606 36.43 7.004 39.67 7.004C42.91 7.004 44.476 8.57 44.476 11.072H42.604C42.406 9.38 41.56 8.516 39.616 8.516C37.708 8.516 36.862 9.416 36.862 10.784C36.862 11.756 37.312 12.278 39.112 12.53L40.894 12.8C43.432 13.16 44.8 14.132 44.8 16.202C44.8 18.632 43.144 20.18 39.67 20.18ZM46.0039 23.528V22.16H46.8319C48.0739 22.16 48.7939 21.368 48.7939 20.522C48.7939 20.342 48.7579 20.144 48.6859 19.964L45.1579 10.712H47.1379L49.8199 18.47L52.5199 10.712H54.5179L50.9539 19.964C49.8919 22.7 48.8299 23.528 46.8139 23.528H46.0039ZM63.1586 20H61.2506V14.204C61.2506 12.8 60.7466 12.08 59.4326 12.08C58.0466 12.08 57.1466 13.124 57.1466 14.816V20H55.2386V10.712H57.0566V12.332C57.5606 11.252 58.4606 10.532 60.0086 10.532C62.1326 10.532 63.1586 11.612 63.1586 13.862V20ZM68.7393 20.18C65.8773 20.18 64.2393 18.308 64.2393 15.356C64.2393 12.404 65.8773 10.532 68.7393 10.532C71.6733 10.532 72.9513 12.404 72.9513 14.132H71.1873C71.0073 12.98 70.3233 11.99 68.7393 11.99C67.1193 11.99 66.1473 13.124 66.1473 15.356C66.1473 17.606 67.1193 18.722 68.7393 18.722C70.1253 18.722 70.9893 17.984 71.1873 16.508H72.9513C72.9513 18.416 71.5653 20.18 68.7393 20.18ZM105.491 20H103.493V8.822H99.5145V7.184H109.487V8.822H105.491V20ZM113.295 20.18C110.343 20.18 108.705 18.308 108.705 15.356C108.705 12.494 110.253 10.532 113.187 10.532C116.121 10.532 117.669 12.53 117.669 15.194C117.669 15.374 117.651 15.536 117.633 15.716H110.613C110.667 17.912 111.711 18.866 113.295 18.866C114.609 18.866 115.437 18.182 115.725 17.12H117.471C117.057 19.01 115.707 20.18 113.295 20.18ZM113.187 11.846C111.747 11.846 110.811 12.71 110.613 14.456H115.761C115.563 12.71 114.627 11.846 113.187 11.846ZM121.712 20.18C119.552 20.18 118.382 19.1 118.382 17.372C118.382 15.986 119.228 14.888 121.532 14.69L123.332 14.546C124.43 14.438 124.754 14.186 124.754 13.592C124.754 12.53 124.142 11.9 122.792 11.9C121.532 11.9 120.848 12.44 120.758 13.592H118.886C118.886 11.72 120.038 10.532 122.774 10.532C125.492 10.532 126.662 11.72 126.662 13.592V17.624C126.662 18.884 126.77 19.694 126.95 20H125.24C124.952 19.64 124.844 19.262 124.844 18.398C124.34 19.586 123.314 20.18 121.712 20.18ZM122.234 18.866C123.872 18.866 124.754 17.588 124.754 16.058V15.266C124.556 15.518 124.052 15.662 123.332 15.716L122.144 15.824C120.812 15.932 120.29 16.49 120.29 17.246C120.29 18.2 120.866 18.866 122.234 18.866ZM140.559 20H138.723V14.15C138.723 12.746 138.273 12.08 137.211 12.08C136.095 12.08 135.231 13.07 135.231 14.762V20H133.395V14.15C133.395 12.746 132.945 12.08 131.901 12.08C130.785 12.08 129.939 13.07 129.939 14.762V20H128.103V10.712H129.921V12.332C130.353 11.252 131.217 10.532 132.495 10.532C133.881 10.532 134.709 11.162 135.051 12.404C135.519 11.216 136.491 10.532 137.769 10.532C139.641 10.532 140.559 11.612 140.559 13.862V20ZM145.671 20.18C142.755 20.18 141.639 18.902 141.639 17.12H143.475C143.565 18.182 144.033 18.902 145.689 18.902C147.309 18.902 147.795 18.2 147.795 17.408C147.795 16.67 147.255 16.292 146.373 16.166L144.663 15.914C142.719 15.644 141.891 14.96 141.891 13.412C141.891 11.81 142.899 10.532 145.671 10.532C148.443 10.532 149.451 11.81 149.451 13.448H147.615C147.525 12.584 147.237 11.81 145.653 11.81C144.303 11.81 143.799 12.368 143.799 13.268C143.799 14.024 144.231 14.294 144.951 14.402L146.661 14.654C148.551 14.924 149.703 15.608 149.703 17.3C149.703 18.902 148.587 20.18 145.671 20.18Z" fill="#223645"/>
<path d="M79.1465 20.18C75.4745 20.18 73.8005 18.47 73.8005 15.158V7.184H75.7985V14.978C75.7985 17.606 76.8245 18.542 79.1465 18.542C81.4685 18.542 82.4945 17.606 82.4945 14.978V7.184H84.4925V15.158C84.4925 18.47 82.8185 20.18 79.1465 20.18ZM90.8191 20.18C89.3251 20.18 88.3171 19.568 87.7951 18.416V23.528H85.8871V10.712H87.7051V12.44C88.2091 11.234 89.2171 10.532 90.8191 10.532C93.3211 10.532 94.8871 12.314 94.8871 15.356C94.8871 18.398 93.3211 20.18 90.8191 20.18ZM90.3871 18.722C91.9171 18.722 92.9791 17.696 92.9791 15.356C92.9791 13.034 91.9171 11.99 90.3871 11.99C88.8391 11.99 87.7951 13.034 87.7951 15.356C87.7951 17.696 88.8391 18.722 90.3871 18.722Z" fill="#1C9DEA"/>
<defs>
<filter id="filter0_d_1301_201" x="-0.4375" y="6.15186" width="24.3945" height="22.6926" filterUnits="userSpaceOnUse" color-interpolation-filters="sRGB">
<feFlood flood-opacity="0" result="BackgroundImageFix"/>
<feColorMatrix in="SourceAlpha" type="matrix" values="0 0 0 0 0 0 0 0 0 0 0 0 0 0 0 0 0 0 127 0" result="hardAlpha"/>
<feOffset dy="0.875"/>
<feGaussianBlur stdDeviation="1.75"/>
<feComposite in2="hardAlpha" operator="out"/>
<feColorMatrix type="matrix" values="0 0 0 0 0 0 0 0 0 0 0 0 0 0 0 0 0 0 0.04 0"/>
<feBlend mode="normal" in2="BackgroundImageFix" result="effect1_dropShadow_1301_201"/>
<feBlend mode="normal" in="SourceGraphic" in2="effect1_dropShadow_1301_201" result="shape"/>
</filter>
<filter id="filter1_d_1301_201" x="7.88477" y="9.60254" width="18.4707" height="19.2722" filterUnits="userSpaceOnUse" color-interpolation-filters="sRGB">
<feFlood flood-opacity="0" result="BackgroundImageFix"/>
<feColorMatrix in="SourceAlpha" type="matrix" values="0 0 0 0 0 0 0 0 0 0 0 0 0 0 0 0 0 0 127 0" result="hardAlpha"/>
<feOffset dy="0.875"/>
<feGaussianBlur stdDeviation="1.75"/>
<feComposite in2="hardAlpha" operator="out"/>
<feColorMatrix type="matrix" values="0 0 0 0 0 0 0 0 0 0 0 0 0 0 0 0 0 0 0.04 0"/>
<feBlend mode="normal" in2="BackgroundImageFix" result="effect1_dropShadow_1301_201"/>
<feBlend mode="normal" in="SourceGraphic" in2="effect1_dropShadow_1301_201" result="shape"/>
</filter>
<clipPath id="clip0_1301_201">
<rect width="28" height="28" rx="2.625" fill="white"/>
</clipPath>
</defs>
</svg>
