<svg width="189" height="28" viewBox="0 0 189 28" fill="none" xmlns="http://www.w3.org/2000/svg">
<g clip-path="url(#clip0_1061_3433)">
<rect x="0.25" width="28" height="28" rx="2.625" fill="#1C9DEA"/>
<path d="M25.1396 3.5L12.6285 18.3064H11.2949C11.1195 18.3216 10.941 18.3306 10.7626 18.3306C6.67389 18.3306 3.35938 15.0161 3.35938 10.9274C3.35938 6.83871 6.67389 3.52419 10.7626 3.52419C10.8866 3.52419 11.0076 3.52721 11.1285 3.53326L25.1396 3.50302V3.5Z" fill="white" fill-opacity="0.6"/>
<g filter="url(#filter0_d_1061_3433)">
<path d="M20.7077 11.0785L9.6875 24.4696L3.3125 24.4606L16.5312 8.7771C18.1825 8.93436 19.6159 9.8144 20.7077 11.0785Z" fill="white"/>
</g>
<g filter="url(#filter1_d_1061_3433)">
<path d="M23.1055 17.0967C23.1055 21.1854 19.791 24.5 15.7023 24.5C15.5239 24.5 15.3485 24.4909 15.17 24.4788L11.6348 24.4727L21.7174 12.2278C22.6005 13.6764 23.1055 15.4123 23.1055 17.0967Z" fill="white"/>
</g>
</g>
<path d="M43 7.9375C42.5781 7.70312 42.1875 7.50781 41.8281 7.35156C41.4766 7.1875 41.1328 7.05469 40.7969 6.95312C40.4609 6.84375 40.125 6.76562 39.7891 6.71875C39.4531 6.67188 39.0977 6.64844 38.7227 6.64844C38.2539 6.64844 37.8242 6.71875 37.4336 6.85938C37.0508 7 36.7188 7.1875 36.4375 7.42188C36.1562 7.65625 35.9375 7.92578 35.7812 8.23047C35.6328 8.53516 35.5586 8.84766 35.5586 9.16797C35.5586 9.48828 35.6016 9.78125 35.6875 10.0469C35.7812 10.3047 35.9648 10.5508 36.2383 10.7852C36.5117 11.0117 36.9023 11.2383 37.4102 11.4648C37.918 11.6836 38.5898 11.9141 39.4258 12.1562C40.1992 12.3828 40.8828 12.6484 41.4766 12.9531C42.0781 13.25 42.582 13.5938 42.9883 13.9844C43.3945 14.375 43.7031 14.8203 43.9141 15.3203C44.125 15.8203 44.2305 16.3867 44.2305 17.0195C44.2305 17.8086 44.0742 18.5273 43.7617 19.1758C43.457 19.8164 43.0352 20.3711 42.4961 20.8398C41.9648 21.3008 41.3438 21.6602 40.6328 21.918C39.9219 22.168 39.168 22.293 38.3711 22.293C37.8086 22.293 37.2578 22.2539 36.7188 22.1758C36.1875 22.0977 35.6836 21.9883 35.207 21.8477C34.7383 21.707 34.3047 21.543 33.9062 21.3555C33.5078 21.1602 33.1602 20.9453 32.8633 20.7109L33.3906 18.3086C34.1719 18.9883 34.9766 19.4805 35.8047 19.7852C36.6406 20.0898 37.4961 20.2422 38.3711 20.2422C38.8398 20.2422 39.293 20.1758 39.7305 20.043C40.168 19.9102 40.5547 19.7188 40.8906 19.4688C41.2266 19.2109 41.4961 18.8984 41.6992 18.5312C41.9023 18.1562 42.0039 17.7305 42.0039 17.2539C42.0039 16.9492 41.9531 16.6602 41.8516 16.3867C41.7578 16.1055 41.5625 15.832 41.2656 15.5664C40.9688 15.3008 40.543 15.0391 39.9883 14.7812C39.4336 14.5156 38.6992 14.2461 37.7852 13.9727C36.8711 13.6992 36.125 13.3984 35.5469 13.0703C34.9688 12.7422 34.5156 12.3867 34.1875 12.0039C33.8594 11.6133 33.6328 11.1992 33.5078 10.7617C33.3906 10.3164 33.332 9.84375 33.332 9.34375C33.332 8.84375 33.4336 8.31641 33.6367 7.76172C33.8477 7.20703 34.1758 6.69531 34.6211 6.22656C35.0664 5.75781 35.6367 5.37109 36.332 5.06641C37.0273 4.75391 37.8633 4.59766 38.8398 4.59766C39.293 4.59766 39.7148 4.61719 40.1055 4.65625C40.5039 4.69531 40.8867 4.75781 41.2539 4.84375C41.6289 4.92969 41.9961 5.03906 42.3555 5.17188C42.7148 5.30469 43.0859 5.46484 43.4688 5.65234L43 7.9375ZM52.727 22C52.3208 23.125 51.9223 24.043 51.5317 24.7539C51.1411 25.4648 50.7427 26.0234 50.3364 26.4297C49.938 26.8438 49.52 27.125 49.0825 27.2734C48.6528 27.4297 48.188 27.5078 47.688 27.5078C47.1489 27.5078 46.6411 27.4219 46.1645 27.25C45.6958 27.0781 45.2466 26.832 44.8169 26.5117L45.52 24.6367C45.645 24.7383 45.7895 24.8398 45.9536 24.9414C46.1255 25.0508 46.3052 25.1445 46.4927 25.2227C46.688 25.3086 46.8872 25.3789 47.0903 25.4336C47.2934 25.4883 47.4927 25.5156 47.688 25.5156C47.9223 25.5156 48.1528 25.4727 48.3794 25.3867C48.6059 25.3086 48.8325 25.1523 49.0591 24.918C49.2934 24.6914 49.5317 24.3672 49.7739 23.9453C50.0161 23.5312 50.2739 22.9844 50.5473 22.3047L47.2778 14.207C47.0591 13.6758 46.8052 13.0781 46.5161 12.4141C46.227 11.75 45.8559 10.9609 45.4028 10.0469H47.7466L51.5317 19.6211C51.6802 19.1992 51.8403 18.7422 52.0122 18.25C52.1919 17.75 52.3755 17.2383 52.563 16.7148C52.7505 16.1836 52.938 15.6523 53.1255 15.1211C53.313 14.582 53.4927 14.0664 53.6645 13.5742C54.0708 12.418 54.4809 11.2422 54.895 10.0469H57.2388C57.0356 10.5 56.852 10.9219 56.688 11.3125C56.5239 11.6953 56.3716 12.0586 56.2309 12.4023C56.0903 12.7383 55.9614 13.0547 55.8442 13.3516C55.7348 13.6484 55.6333 13.9336 55.5395 14.207L52.727 22ZM67.1298 22V15.5547C67.1298 14.8203 67.0791 14.2148 66.9775 13.7383C66.8838 13.2617 66.7392 12.8867 66.5439 12.6133C66.3564 12.332 66.1142 12.1367 65.8173 12.0273C65.5283 11.918 65.1845 11.8633 64.7861 11.8633C64.3642 11.8633 63.9502 11.9648 63.5439 12.168C63.1455 12.3633 62.7783 12.6211 62.4423 12.9414C62.1064 13.2539 61.8095 13.6094 61.5517 14.0078C61.2939 14.4062 61.1025 14.8047 60.9775 15.2031V22H58.8095V14.793C58.8095 13.6367 58.7431 12.6602 58.6103 11.8633C58.4853 11.0586 58.3564 10.4531 58.2236 10.0469H60.333C60.3798 10.1719 60.4267 10.3359 60.4736 10.5391C60.5205 10.7344 60.5634 10.9414 60.6025 11.1602C60.6416 11.3789 60.6767 11.5938 60.708 11.8047L60.8017 12.332C61.5439 11.4414 62.2939 10.8008 63.0517 10.4102C63.8095 10.0117 64.6025 9.8125 65.4306 9.8125C66.6806 9.8125 67.6377 10.2227 68.3017 11.043C68.9658 11.8555 69.2978 13.0664 69.2978 14.6758V22H67.1298ZM81.2514 21.0039C80.9545 21.2305 80.6577 21.4258 80.3608 21.5898C80.0717 21.7461 79.767 21.8789 79.4467 21.9883C79.1264 22.0898 78.7827 22.1641 78.4155 22.2109C78.0483 22.2656 77.6459 22.293 77.2084 22.293C76.4194 22.293 75.6811 22.1562 74.9936 21.8828C74.3061 21.6016 73.7045 21.1992 73.1889 20.6758C72.6733 20.1523 72.267 19.5195 71.9702 18.7773C71.6733 18.0352 71.5248 17.1953 71.5248 16.2578C71.5248 15.375 71.6655 14.543 71.9467 13.7617C72.2358 12.9805 72.642 12.2969 73.1655 11.7109C73.6967 11.125 74.3373 10.6641 75.0873 10.3281C75.8452 9.98438 76.6889 9.8125 77.6186 9.8125C78.3998 9.8125 79.0717 9.90625 79.6342 10.0938C80.2045 10.2734 80.7045 10.5117 81.1342 10.8086L80.7241 12.918C80.1928 12.5273 79.6655 12.2344 79.142 12.0391C78.6186 11.8438 78.0522 11.7461 77.4428 11.7461C76.9194 11.7461 76.4311 11.8477 75.978 12.0508C75.5327 12.2461 75.142 12.5312 74.8061 12.9062C74.478 13.2812 74.2202 13.7422 74.0327 14.2891C73.8452 14.8359 73.7514 15.4531 73.7514 16.1406C73.7514 16.7734 73.8373 17.3477 74.0092 17.8633C74.1811 18.3789 74.4272 18.8242 74.7475 19.1992C75.0678 19.5664 75.4545 19.8516 75.9077 20.0547C76.3608 20.2578 76.8725 20.3594 77.4428 20.3594C78.1538 20.3594 78.7983 20.2383 79.3764 19.9961C79.9545 19.7539 80.5014 19.4062 81.017 18.9531L81.2514 21.0039ZM131.538 4.89062V7.05859C131.07 6.95703 130.605 6.89453 130.144 6.87109C129.691 6.83984 129.199 6.82422 128.667 6.82422H125.855V16.9023C125.855 18.0586 125.867 19.082 125.89 19.9727C125.921 20.8555 125.988 21.5312 126.089 22H123.394C123.495 21.5312 123.558 20.8555 123.581 19.9727C123.613 19.082 123.628 18.0586 123.628 16.9023V6.82422H120.874C120.351 6.82422 119.859 6.83984 119.398 6.87109C118.937 6.89453 118.472 6.95703 118.003 7.05859V4.89062H131.538ZM135.113 16.3164C135.137 17.0039 135.242 17.6016 135.43 18.1094C135.625 18.6172 135.887 19.0391 136.215 19.375C136.551 19.7031 136.941 19.9492 137.387 20.1133C137.84 20.2773 138.332 20.3594 138.863 20.3594C139.621 20.3594 140.363 20.2734 141.09 20.1016C141.816 19.9297 142.539 19.625 143.258 19.1875L143.492 21.1211C143.078 21.332 142.672 21.5117 142.273 21.6602C141.875 21.8086 141.476 21.9297 141.078 22.0234C140.68 22.1172 140.273 22.1836 139.859 22.2227C139.453 22.2695 139.023 22.293 138.57 22.293C137.82 22.293 137.105 22.1641 136.426 21.9062C135.746 21.6406 135.148 21.2539 134.633 20.7461C134.117 20.2305 133.707 19.5938 133.402 18.8359C133.098 18.0781 132.945 17.1992 132.945 16.1992C132.945 15.2305 133.074 14.3555 133.332 13.5742C133.598 12.7852 133.973 12.1133 134.457 11.5586C134.941 10.9961 135.531 10.5664 136.226 10.2695C136.922 9.96484 137.703 9.8125 138.57 9.8125C139.211 9.8125 139.777 9.89062 140.269 10.0469C140.762 10.1953 141.187 10.4062 141.547 10.6797C141.906 10.9453 142.207 11.2578 142.449 11.6172C142.691 11.9766 142.883 12.3633 143.023 12.7773C143.172 13.1914 143.277 13.625 143.34 14.0781C143.402 14.5234 143.433 14.9648 143.433 15.4023V15.8594C143.433 16.0547 143.43 16.207 143.422 16.3164H135.113ZM138.394 11.5703C137.535 11.5703 136.832 11.8242 136.285 12.332C135.738 12.832 135.379 13.6133 135.207 14.6758H141.324C141.324 14.1758 141.25 13.7344 141.101 13.3516C140.961 12.9609 140.758 12.6328 140.492 12.3672C140.234 12.1016 139.926 11.9023 139.566 11.7695C139.207 11.6367 138.816 11.5703 138.394 11.5703ZM153.629 11.8984C153.535 11.875 153.43 11.8516 153.313 11.8281C153.196 11.8047 153.055 11.7812 152.891 11.7578C152.735 11.7344 152.547 11.7188 152.328 11.7109C152.118 11.6953 151.868 11.6875 151.578 11.6875C150.813 11.6875 150.172 11.8438 149.657 12.1562C149.149 12.4609 148.743 12.8711 148.438 13.3867C148.133 13.8945 147.914 14.4805 147.782 15.1445C147.657 15.8086 147.594 16.4922 147.594 17.1953C147.594 17.6484 147.637 18.0664 147.723 18.4492C147.817 18.8242 147.942 19.1523 148.098 19.4336C148.254 19.707 148.434 19.9219 148.637 20.0781C148.84 20.2266 149.059 20.3008 149.293 20.3008C149.637 20.3008 149.981 20.168 150.325 19.9023C150.676 19.6367 151.012 19.2969 151.332 18.8828C151.653 18.4609 151.953 17.9922 152.235 17.4766C152.516 16.9531 152.758 16.4375 152.961 15.9297C153.172 15.4141 153.336 14.9297 153.453 14.4766C153.571 14.0234 153.629 13.6602 153.629 13.3867V11.8984ZM154.508 22C154.422 21.8125 154.344 21.5547 154.274 21.2266C154.211 20.8984 154.157 20.5508 154.11 20.1836C154.071 19.8086 154.039 19.4375 154.016 19.0703C153.993 18.7031 153.981 18.3906 153.981 18.1328V17.1953C153.746 17.8047 153.465 18.4141 153.137 19.0234C152.817 19.625 152.446 20.168 152.024 20.6523C151.61 21.1367 151.145 21.5312 150.629 21.8359C150.114 22.1406 149.551 22.293 148.942 22.293C148.45 22.293 147.989 22.1836 147.559 21.9648C147.129 21.7461 146.754 21.4219 146.434 20.9922C146.121 20.5625 145.875 20.0312 145.696 19.3984C145.516 18.7578 145.426 18.0234 145.426 17.1953C145.426 16.2656 145.551 15.3594 145.801 14.4766C146.051 13.5859 146.434 12.7969 146.95 12.1094C147.465 11.4141 148.121 10.8594 148.918 10.4453C149.715 10.0234 150.66 9.8125 151.754 9.8125C152.512 9.8125 153.227 9.86328 153.899 9.96484C154.571 10.0586 155.203 10.1836 155.797 10.3398V15.7891C155.797 17.2656 155.868 18.5078 156.008 19.5156C156.149 20.5156 156.332 21.3438 156.559 22H154.508ZM168.266 22H166.098V15.3203C166.098 14.5938 166.071 14.0078 166.016 13.5625C165.962 13.1094 165.868 12.7578 165.735 12.5078C165.61 12.25 165.438 12.0781 165.22 11.9922C165.001 11.9062 164.727 11.8633 164.399 11.8633C164.11 11.8633 163.821 11.9219 163.532 12.0391C163.243 12.1562 162.966 12.3242 162.7 12.543C162.442 12.7539 162.2 13.0078 161.973 13.3047C161.755 13.5938 161.567 13.9141 161.411 14.2656V22H159.243V14.793C159.243 13.6367 159.177 12.6602 159.044 11.8633C158.911 11.0586 158.782 10.4531 158.657 10.0469H160.766C160.852 10.2969 160.927 10.5938 160.989 10.9375C161.052 11.2734 161.102 11.582 161.141 11.8633C161.501 11.4492 161.845 11.1094 162.173 10.8438C162.501 10.5781 162.825 10.3711 163.145 10.2227C163.473 10.0664 163.798 9.96094 164.118 9.90625C164.438 9.84375 164.766 9.8125 165.102 9.8125C165.485 9.8125 165.833 9.86719 166.145 9.97656C166.458 10.0859 166.731 10.2305 166.966 10.4102C167.208 10.5898 167.415 10.8008 167.587 11.043C167.759 11.2773 167.891 11.5234 167.985 11.7812C168.352 11.3828 168.708 11.0586 169.052 10.8086C169.395 10.5508 169.731 10.3516 170.059 10.2109C170.387 10.0625 170.708 9.96094 171.02 9.90625C171.341 9.84375 171.653 9.8125 171.958 9.8125C172.552 9.8125 173.052 9.91016 173.458 10.1055C173.864 10.293 174.188 10.5742 174.43 10.9492C174.68 11.3242 174.856 11.7891 174.958 12.3438C175.067 12.8984 175.122 13.5391 175.122 14.2656V22H172.954V15.5547C172.954 14.7969 172.927 14.1797 172.872 13.7031C172.817 13.2266 172.723 12.8516 172.591 12.5781C172.466 12.3047 172.294 12.1172 172.075 12.0156C171.856 11.9141 171.583 11.8633 171.255 11.8633C170.966 11.8633 170.68 11.9219 170.399 12.0391C170.118 12.1484 169.845 12.3086 169.579 12.5195C169.321 12.7227 169.079 12.9727 168.852 13.2695C168.634 13.5664 168.438 13.8984 168.266 14.2656V22ZM185.845 12.8008C185.65 12.6836 185.427 12.5625 185.177 12.4375C184.927 12.3047 184.654 12.1836 184.357 12.0742C184.068 11.9648 183.755 11.875 183.419 11.8047C183.091 11.7266 182.747 11.6875 182.388 11.6875C181.958 11.6875 181.595 11.7344 181.298 11.8281C181.009 11.9219 180.775 12.043 180.595 12.1914C180.423 12.332 180.298 12.4961 180.22 12.6836C180.142 12.8633 180.103 13.0391 180.103 13.2109C180.103 13.4141 180.134 13.5938 180.197 13.75C180.259 13.9062 180.388 14.0508 180.583 14.1836C180.786 14.3164 181.072 14.4453 181.439 14.5703C181.806 14.6953 182.298 14.8281 182.915 14.9688C183.447 15.0859 183.947 15.2383 184.415 15.4258C184.884 15.6055 185.294 15.8359 185.646 16.1172C185.997 16.3984 186.275 16.7383 186.478 17.1367C186.681 17.5273 186.783 17.9961 186.783 18.543C186.783 19.0742 186.665 19.5664 186.431 20.0195C186.197 20.4727 185.876 20.8711 185.47 21.2148C185.064 21.5508 184.587 21.8125 184.04 22C183.493 22.1953 182.904 22.293 182.271 22.293C181.794 22.293 181.333 22.2578 180.888 22.1875C180.45 22.1172 180.036 22.0195 179.646 21.8945C179.263 21.7695 178.911 21.625 178.591 21.4609C178.271 21.2969 177.993 21.125 177.759 20.9453L178.345 18.8359C178.611 19.0703 178.908 19.2852 179.236 19.4805C179.572 19.6758 179.915 19.8438 180.267 19.9844C180.618 20.125 180.97 20.2344 181.322 20.3125C181.681 20.3828 182.017 20.418 182.329 20.418C182.673 20.418 182.986 20.375 183.267 20.2891C183.556 20.1953 183.802 20.0781 184.005 19.9375C184.216 19.7891 184.38 19.6211 184.497 19.4336C184.615 19.2383 184.673 19.0391 184.673 18.8359C184.673 18.6172 184.626 18.4141 184.533 18.2266C184.447 18.0312 184.283 17.8477 184.04 17.6758C183.806 17.4961 183.478 17.3242 183.056 17.1602C182.642 16.9961 182.107 16.832 181.45 16.668C180.74 16.4961 180.158 16.293 179.704 16.0586C179.259 15.8242 178.908 15.5664 178.65 15.2852C178.4 15.0039 178.228 14.6992 178.134 14.3711C178.04 14.043 177.993 13.6953 177.993 13.3281C177.993 13.1484 178.021 12.9375 178.075 12.6953C178.138 12.4531 178.236 12.2031 178.368 11.9453C178.509 11.6797 178.689 11.4219 178.908 11.1719C179.134 10.9141 179.415 10.6875 179.751 10.4922C180.087 10.2891 180.482 10.125 180.935 10C181.388 9.875 181.911 9.8125 182.505 9.8125C182.927 9.8125 183.322 9.83984 183.689 9.89453C184.064 9.94922 184.404 10.0234 184.708 10.1172C185.021 10.2031 185.306 10.3047 185.564 10.4219C185.822 10.5312 186.052 10.6406 186.255 10.75L185.845 12.8008Z" fill="#223645"/>
<path d="M96.5917 4.89062C96.5136 5.35938 96.4628 6.02344 96.4394 6.88281C96.4238 7.73438 96.4159 8.76953 96.4159 9.98828V15.9648C96.4159 16.918 96.2909 17.7852 96.0409 18.5664C95.7909 19.3398 95.4081 20.0039 94.8925 20.5586C94.3847 21.1133 93.7402 21.543 92.9589 21.8477C92.1777 22.1445 91.2597 22.293 90.205 22.293C89.1347 22.293 88.205 22.1445 87.4159 21.8477C86.6347 21.543 85.9863 21.1133 85.4706 20.5586C84.955 20.0039 84.5683 19.3398 84.3105 18.5664C84.0605 17.7852 83.9355 16.918 83.9355 15.9648V9.98828C83.9355 8.83203 83.9238 7.8125 83.9003 6.92969C83.8847 6.03906 83.8378 5.35938 83.7597 4.89062H86.162V15.4375C86.162 16.2031 86.2284 16.8945 86.3613 17.5117C86.4941 18.1211 86.7167 18.6445 87.0292 19.082C87.3417 19.5117 87.7558 19.8438 88.2714 20.0781C88.787 20.3047 89.4316 20.418 90.205 20.418C90.9628 20.418 91.5956 20.3047 92.1034 20.0781C92.6113 19.8438 93.0175 19.5117 93.3222 19.082C93.6347 18.6445 93.8573 18.1211 93.9902 17.5117C94.123 16.8945 94.1894 16.2031 94.1894 15.4375V4.89062H96.5917ZM102.264 18.9531C102.662 19.2344 103.006 19.4688 103.295 19.6562C103.592 19.8359 103.862 19.9805 104.104 20.0898C104.346 20.1914 104.577 20.2617 104.795 20.3008C105.022 20.3398 105.272 20.3594 105.545 20.3594C105.959 20.3594 106.354 20.2617 106.729 20.0664C107.112 19.8711 107.448 19.5898 107.737 19.2227C108.034 18.8477 108.268 18.3984 108.44 17.875C108.62 17.3438 108.709 16.7461 108.709 16.082C108.709 15.4336 108.647 14.8477 108.522 14.3242C108.405 13.793 108.229 13.3438 107.995 12.9766C107.76 12.6016 107.475 12.3125 107.139 12.1094C106.811 11.9062 106.436 11.8047 106.014 11.8047C105.678 11.8047 105.334 11.8789 104.983 12.0273C104.631 12.1758 104.287 12.3945 103.952 12.6836C103.623 12.9727 103.315 13.3359 103.026 13.7734C102.737 14.2031 102.483 14.6992 102.264 15.2617V18.9531ZM101.62 10.0469C101.705 10.25 101.791 10.5391 101.877 10.9141C101.963 11.2812 102.034 11.7344 102.088 12.2734C102.362 11.9141 102.659 11.582 102.979 11.2773C103.307 10.9727 103.651 10.7148 104.01 10.5039C104.377 10.2852 104.76 10.1172 105.159 10C105.565 9.875 105.987 9.8125 106.424 9.8125C107.088 9.8125 107.694 9.96094 108.241 10.2578C108.795 10.5469 109.264 10.957 109.647 11.4883C110.037 12.0117 110.338 12.6367 110.549 13.3633C110.768 14.082 110.877 14.8711 110.877 15.7305C110.877 16.7305 110.737 17.6367 110.455 18.4492C110.174 19.2539 109.791 19.9414 109.307 20.5117C108.83 21.082 108.268 21.5234 107.62 21.8359C106.971 22.1406 106.28 22.293 105.545 22.293C105.233 22.293 104.936 22.2617 104.655 22.1992C104.381 22.1367 104.112 22.0508 103.846 21.9414C103.588 21.832 103.33 21.6992 103.073 21.543C102.815 21.3789 102.545 21.1992 102.264 21.0039V23.7578C102.264 24.2266 102.268 24.6484 102.276 25.0234C102.291 25.4062 102.311 25.7578 102.334 26.0781C102.358 26.3984 102.389 26.6914 102.428 26.957C102.467 27.2305 102.51 27.4922 102.557 27.7422H100.096V16.3164C100.096 15.5898 100.088 14.918 100.073 14.3008C100.065 13.6758 100.041 13.1055 100.002 12.5898C99.9633 12.0664 99.9047 11.5938 99.8266 11.1719C99.7484 10.75 99.643 10.375 99.5102 10.0469H101.62Z" fill="#1C9DEA"/>
<defs>
<filter id="filter0_d_1061_3433" x="-0.1875" y="6.1521" width="24.3945" height="22.6926" filterUnits="userSpaceOnUse" color-interpolation-filters="sRGB">
<feFlood flood-opacity="0" result="BackgroundImageFix"/>
<feColorMatrix in="SourceAlpha" type="matrix" values="0 0 0 0 0 0 0 0 0 0 0 0 0 0 0 0 0 0 127 0" result="hardAlpha"/>
<feOffset dy="0.875"/>
<feGaussianBlur stdDeviation="1.75"/>
<feComposite in2="hardAlpha" operator="out"/>
<feColorMatrix type="matrix" values="0 0 0 0 0 0 0 0 0 0 0 0 0 0 0 0 0 0 0.04 0"/>
<feBlend mode="normal" in2="BackgroundImageFix" result="effect1_dropShadow_1061_3433"/>
<feBlend mode="normal" in="SourceGraphic" in2="effect1_dropShadow_1061_3433" result="shape"/>
</filter>
<filter id="filter1_d_1061_3433" x="8.13477" y="9.60278" width="18.4707" height="19.2722" filterUnits="userSpaceOnUse" color-interpolation-filters="sRGB">
<feFlood flood-opacity="0" result="BackgroundImageFix"/>
<feColorMatrix in="SourceAlpha" type="matrix" values="0 0 0 0 0 0 0 0 0 0 0 0 0 0 0 0 0 0 127 0" result="hardAlpha"/>
<feOffset dy="0.875"/>
<feGaussianBlur stdDeviation="1.75"/>
<feComposite in2="hardAlpha" operator="out"/>
<feColorMatrix type="matrix" values="0 0 0 0 0 0 0 0 0 0 0 0 0 0 0 0 0 0 0.04 0"/>
<feBlend mode="normal" in2="BackgroundImageFix" result="effect1_dropShadow_1061_3433"/>
<feBlend mode="normal" in="SourceGraphic" in2="effect1_dropShadow_1061_3433" result="shape"/>
</filter>
<clipPath id="clip0_1061_3433">
<rect x="0.25" width="28" height="28" rx="2.625" fill="white"/>
</clipPath>
</defs>
</svg>
